<svg width="280" height="19" viewBox="0 0 280 19" fill="none" xmlns="http://www.w3.org/2000/svg">
<path d="M8.88 18.24C4.656 18.24 0.792 14.064 0.792 9.312C0.792 4.272 4.152 0.743999 8.76 0.743999C12.552 0.743999 15.312 3.456 15.312 5.184C15.312 5.808 14.928 6.216 14.256 6.216C12.456 6.216 12.6 1.728 8.208 1.728C5.424 1.728 2.952 4.32 2.952 8.112C2.952 12.96 6.096 16.32 9.48 16.32C12.36 16.32 14.016 14.112 14.76 12.336C15.048 11.856 15.792 11.952 15.648 12.648C15.12 15.48 12.864 18.24 8.88 18.24ZM18.1856 18C17.8976 18 17.7056 17.904 17.7056 17.712V17.664C17.7056 17.208 18.5696 17.184 18.5696 16.32V2.64C18.5696 1.776 17.7056 1.752 17.7056 1.296V1.248C17.7056 1.056 17.8976 0.959999 18.1856 0.959999H21.1856C21.4736 0.959999 21.6656 1.056 21.6656 1.248V1.296C21.6656 1.752 20.7536 1.776 20.7536 2.64L20.7296 8.784H30.1616L30.1376 2.64C30.1376 1.776 29.2736 1.752 29.2736 1.296V1.248C29.2736 1.056 29.4656 0.959999 29.7536 0.959999H32.7536C33.0656 0.959999 33.2576 1.056 33.2576 1.248V1.296C33.2576 1.752 32.3216 1.776 32.3216 2.64V16.32C32.3216 17.184 33.2576 17.208 33.2576 17.664V17.712C33.2576 17.904 33.0656 18 32.7536 18H29.7536C29.4656 18 29.2736 17.904 29.2736 17.712V17.664C29.2736 17.208 30.1376 17.184 30.1376 16.32L30.1616 9.84H20.7536V16.32C20.7536 17.184 21.6656 17.208 21.6656 17.664V17.712C21.6656 17.904 21.4736 18 21.1856 18H18.1856ZM36.5841 18C36.2961 18 36.0801 17.904 36.0801 17.712V17.664C36.0801 17.208 36.9681 17.208 36.9681 16.296V2.664C36.9681 1.752 36.0801 1.728 36.0801 1.296V1.224C36.0801 1.056 36.2481 0.959999 36.5121 0.959999H46.6881C47.0721 0.959999 47.2161 1.152 47.2881 1.488L47.8641 3.864C47.9361 4.2 47.8161 4.344 47.5761 4.344H47.4561C46.7121 4.344 46.1361 1.944 44.8881 1.944H39.8001C39.3681 1.944 39.1281 2.184 39.1281 2.76V8.784H43.4961C44.4081 8.784 44.3841 7.368 44.8881 7.368H44.9841C45.1761 7.368 45.2961 7.512 45.2961 7.776V10.728C45.2961 10.968 45.1761 11.136 44.9841 11.136H44.8881C44.3841 11.136 44.4081 9.768 43.4961 9.768H39.1281L39.1041 15.984C39.1041 16.536 39.3921 17.016 39.9921 17.016H45.6321C46.9041 17.016 47.3121 14.544 48.1521 14.544H48.2961C48.5121 14.544 48.6321 14.76 48.5841 15.024L48.0081 17.448C47.9361 17.808 47.7681 18 47.3841 18H36.5841ZM62.9027 14.448C63.1907 14.448 63.3587 14.616 63.2867 14.928L62.6147 17.496C62.5187 17.784 62.3027 18 62.0387 18H50.0627C49.7987 18 49.5827 17.808 49.5827 17.568V17.424C49.5827 17.208 49.7507 16.992 49.8947 16.776L60.0707 1.944H52.5347C51.4307 1.944 51.0227 4.416 50.1827 4.416H50.0867C49.7987 4.416 49.6547 4.224 49.7267 3.84L50.3747 1.488C50.4467 1.152 50.5907 0.959999 50.9747 0.959999H62.1587C62.3987 0.959999 62.6147 1.152 62.6147 1.392V1.608C62.6147 1.776 62.4467 2.016 62.2547 2.304L52.1267 17.016H60.2387C61.6067 17.016 62.0627 14.448 62.8547 14.448H62.9027ZM65.4591 18C65.1711 18 64.9791 17.88 64.9791 17.712V17.664C64.9791 17.208 65.8431 17.16 65.8431 16.32V2.64C65.8431 1.752 64.9791 1.776 64.9791 1.296V1.248C64.9791 1.056 65.1711 0.959999 65.4591 0.959999H68.4831C68.7711 0.959999 68.9631 1.056 68.9631 1.248V1.296C68.9631 1.776 68.0271 1.752 68.0271 2.64V16.08C68.0271 16.632 68.2911 17.016 68.7951 17.016H74.1231C75.5151 17.016 75.8031 14.376 76.6431 14.376H76.8351C77.0511 14.376 77.1711 14.52 77.0991 14.808L76.4991 17.448C76.4271 17.808 76.2591 18 75.8991 18H65.4591ZM79.2638 18C78.9758 18 78.7598 17.904 78.7598 17.712V17.664C78.7598 17.208 79.6478 17.208 79.6478 16.296V2.664C79.6478 1.752 78.7598 1.728 78.7598 1.296V1.224C78.7598 1.056 78.9277 0.959999 79.1918 0.959999H89.3678C89.7518 0.959999 89.8958 1.152 89.9678 1.488L90.5438 3.864C90.6158 4.2 90.4958 4.344 90.2558 4.344H90.1358C89.3918 4.344 88.8158 1.944 87.5678 1.944H82.4798C82.0478 1.944 81.8078 2.184 81.8078 2.76V8.784H86.1758C87.0878 8.784 87.0638 7.368 87.5678 7.368H87.6638C87.8558 7.368 87.9758 7.512 87.9758 7.776V10.728C87.9758 10.968 87.8558 11.136 87.6638 11.136H87.5678C87.0638 11.136 87.0878 9.768 86.1758 9.768H81.8078L81.7838 15.984C81.7838 16.536 82.0718 17.016 82.6718 17.016H88.3118C89.5838 17.016 89.9918 14.544 90.8318 14.544H90.9758C91.1918 14.544 91.3118 14.76 91.2638 15.024L90.6878 17.448C90.6158 17.808 90.4478 18 90.0638 18H79.2638ZM100.692 18.24C96.276 18.24 92.388 14.256 92.388 9.552C92.388 4.248 95.94 0.743999 100.428 0.743999C104.484 0.743999 107.052 3.408 107.052 5.16C107.052 5.784 106.644 6.192 106.02 6.192C104.22 6.192 104.172 1.728 99.804 1.728C96.9 1.728 94.524 4.536 94.524 8.256C94.524 13.128 97.764 16.776 101.268 16.776C102.804 16.776 104.172 16.344 105.012 15.744V11.592C105.012 10.632 103.38 10.68 103.38 10.272V10.176C103.38 9.96 103.596 9.84 103.884 9.84L107.988 9.864C108.276 9.864 108.468 9.984 108.468 10.176V10.272C108.468 10.68 107.052 10.632 107.052 11.592V15.312C107.052 15.816 106.908 16.08 106.428 16.464C105.18 17.496 103.188 18.24 100.692 18.24ZM122.739 16.32C123.387 17.232 124.251 17.208 124.251 17.664V17.712C124.251 17.904 124.059 18 123.771 18H120.435C120.147 18 119.955 17.904 119.955 17.712V17.664C119.955 17.208 120.987 17.208 120.435 16.32L116.835 11.352C116.643 11.376 116.451 11.376 116.235 11.376L113.355 11.424V16.32C113.355 17.184 114.291 17.208 114.291 17.664V17.712C114.291 17.904 114.099 18 113.811 18H110.787C110.499 18 110.307 17.904 110.307 17.712V17.664C110.307 17.208 111.171 17.184 111.171 16.32V2.64C111.171 1.776 110.307 1.752 110.307 1.296V1.248C110.307 1.056 110.499 0.959999 110.787 0.959999H115.707C119.811 0.959999 122.931 2.616 122.955 6.24C122.955 8.424 121.539 10.272 118.899 11.016L122.739 16.32ZM116.019 10.416C118.803 10.416 120.723 8.976 120.723 6.552C120.723 3.384 118.275 1.944 115.587 1.944H113.979C113.547 1.944 113.355 2.256 113.355 2.76V9.288C113.355 10.08 113.715 10.416 114.363 10.416H116.019ZM139.498 16.32C139.882 17.208 140.65 17.208 140.65 17.664V17.712C140.65 17.904 140.482 18 140.194 18H136.81C136.522 18 136.354 17.904 136.354 17.712V17.664C136.354 17.208 137.482 17.16 137.17 16.32L136.018 13.488H128.242L127.186 16.32C126.85 17.16 128.002 17.208 128.002 17.664V17.712C128.002 17.904 127.81 18 127.498 18H125.218C124.906 18 124.738 17.904 124.738 17.712V17.664C124.738 17.208 125.53 17.232 125.866 16.32L131.194 2.712C131.482 1.992 130.45 1.68 130.45 1.296V1.224C130.45 1.08 130.546 0.959999 130.786 0.959999H132.178C132.754 0.959999 133.066 1.176 133.306 1.752L139.498 16.32ZM128.65 12.456H135.61L132.01 3.552L128.65 12.456ZM156.872 0.959999C157.16 0.959999 157.352 1.08 157.352 1.272V1.32C157.352 1.752 156.392 1.776 156.392 2.64V17.352C156.392 17.76 156.176 18 155.792 18H155.192C154.952 18 154.736 17.856 154.424 17.376L144.176 3.408V16.248C144.176 17.136 145.208 17.208 145.208 17.664V17.712C145.208 17.904 144.992 18 144.704 18H142.52C142.208 18 142.04 17.904 142.04 17.712V17.664C142.04 17.208 142.952 17.136 142.952 16.248V2.664C142.952 1.824 142.04 1.824 142.04 1.368V1.272C142.04 1.08 142.208 0.959999 142.52 0.959999H144.344C144.728 0.959999 144.992 1.128 145.208 1.44L155.168 15.216V2.64C155.168 1.776 154.184 1.752 154.184 1.32V1.272C154.184 1.08 154.376 0.959999 154.688 0.959999H156.872ZM160.568 18C160.28 18 160.064 17.904 160.064 17.712V17.664C160.064 17.208 160.952 17.16 160.952 16.32V2.64C160.952 1.776 160.064 1.752 160.064 1.296V1.248C160.064 1.056 160.28 0.959999 160.568 0.959999H165.824C171.128 0.959999 175.52 4.32 175.52 9.336C175.52 14.76 171.632 18 166.688 18H160.568ZM164.216 17.016H166.544C170.216 17.016 173.288 14.52 173.288 10.104C173.288 5.112 169.496 1.944 165.44 1.944H163.76C163.376 1.944 163.088 2.184 163.088 2.712V15.696C163.088 16.536 163.52 17.016 164.216 17.016ZM185.63 18.24C181.214 18.24 177.326 14.256 177.326 9.552C177.326 4.248 180.878 0.743999 185.366 0.743999C189.422 0.743999 191.99 3.408 191.99 5.16C191.99 5.784 191.582 6.192 190.958 6.192C189.158 6.192 189.109 1.728 184.742 1.728C181.838 1.728 179.462 4.536 179.462 8.256C179.462 13.128 182.702 16.776 186.206 16.776C187.742 16.776 189.109 16.344 189.95 15.744V11.592C189.95 10.632 188.318 10.68 188.318 10.272V10.176C188.318 9.96 188.534 9.84 188.822 9.84L192.926 9.864C193.214 9.864 193.406 9.984 193.406 10.176V10.272C193.406 10.68 191.99 10.632 191.99 11.592V15.312C191.99 15.816 191.846 16.08 191.366 16.464C190.118 17.496 188.126 18.24 185.63 18.24ZM203.261 18.24C198.197 18.24 194.717 14.064 194.717 9.432C194.717 4.464 198.149 0.719999 203.093 0.719999C208.013 0.719999 211.421 4.776 211.421 9.576C211.421 14.304 207.893 18.24 203.261 18.24ZM203.789 17.208C207.005 17.208 209.261 14.256 209.261 11.016C209.261 5.928 206.453 1.752 202.349 1.752C199.109 1.752 196.877 4.44 196.877 7.968C196.877 12.912 199.685 17.208 203.789 17.208ZM221.152 18.24C217.144 18.24 214.36 15.552 214.36 11.376V2.64C214.36 1.8 213.496 1.752 213.496 1.32V1.248C213.496 1.056 213.688 0.959999 213.976 0.959999H217C217.288 0.959999 217.48 1.056 217.48 1.248V1.32C217.48 1.752 216.568 1.8 216.568 2.64V11.376C216.568 14.928 218.56 17.208 221.56 17.208C224.08 17.208 226.336 15.192 226.336 11.376V2.64C226.336 1.8 225.424 1.752 225.424 1.32V1.248C225.424 1.056 225.64 0.959999 225.928 0.959999H228.04C228.328 0.959999 228.544 1.056 228.544 1.248V1.32C228.544 1.752 227.56 1.8 227.56 2.64V11.4C227.56 15.552 224.92 18.24 221.152 18.24ZM243.466 16.32C244.114 17.232 244.978 17.208 244.978 17.664V17.712C244.978 17.904 244.786 18 244.498 18H241.162C240.874 18 240.682 17.904 240.682 17.712V17.664C240.682 17.208 241.714 17.208 241.162 16.32L237.562 11.352C237.37 11.376 237.178 11.376 236.962 11.376L234.082 11.424V16.32C234.082 17.184 235.018 17.208 235.018 17.664V17.712C235.018 17.904 234.826 18 234.538 18H231.514C231.226 18 231.034 17.904 231.034 17.712V17.664C231.034 17.208 231.898 17.184 231.898 16.32V2.64C231.898 1.776 231.034 1.752 231.034 1.296V1.248C231.034 1.056 231.226 0.959999 231.514 0.959999H236.434C240.538 0.959999 243.658 2.616 243.682 6.24C243.682 8.424 242.266 10.272 239.626 11.016L243.466 16.32ZM236.746 10.416C239.53 10.416 241.45 8.976 241.45 6.552C241.45 3.384 239.002 1.944 236.314 1.944H234.706C234.274 1.944 234.082 2.256 234.082 2.76V9.288C234.082 10.08 234.442 10.416 235.09 10.416H236.746ZM254.425 18.24C249.361 18.24 245.881 14.064 245.881 9.432C245.881 4.464 249.313 0.719999 254.257 0.719999C259.177 0.719999 262.585 4.776 262.585 9.576C262.585 14.304 259.057 18.24 254.425 18.24ZM254.953 17.208C258.169 17.208 260.425 14.256 260.425 11.016C260.425 5.928 257.617 1.752 253.513 1.752C250.273 1.752 248.041 4.44 248.041 7.968C248.041 12.912 250.849 17.208 254.953 17.208ZM272.316 18.24C268.308 18.24 265.524 15.552 265.524 11.376V2.64C265.524 1.8 264.66 1.752 264.66 1.32V1.248C264.66 1.056 264.852 0.959999 265.14 0.959999H268.164C268.452 0.959999 268.644 1.056 268.644 1.248V1.32C268.644 1.752 267.732 1.8 267.732 2.64V11.376C267.732 14.928 269.724 17.208 272.724 17.208C275.244 17.208 277.5 15.192 277.5 11.376V2.64C277.5 1.8 276.588 1.752 276.588 1.32V1.248C276.588 1.056 276.804 0.959999 277.092 0.959999H279.204C279.492 0.959999 279.708 1.056 279.708 1.248V1.32C279.708 1.752 278.724 1.8 278.724 2.64V11.4C278.724 15.552 276.084 18.24 272.316 18.24Z" fill="#F8FAFC"/>
</svg>
